<svg version="1.1" id="Layer_1" xmlns="http://www.w3.org/2000/svg" xmlns:xlink="http://www.w3.org/1999/xlink" x="0px" y="0px"
	 width="100%" viewBox="0 0 538 224" enable-background="new 0 0 538 224" xml:space="preserve">
<path fill="#000100" opacity="1.000000" stroke="none" 
	d="
M340.000000,225.000000 
	C226.666672,225.000000 113.833336,225.000000 1.000000,225.000000 
	C1.000000,150.333328 1.000000,75.666664 1.000000,1.000000 
	C180.333328,1.000000 359.666656,1.000000 539.000000,1.000000 
	C539.000000,75.666664 539.000000,150.333328 539.000000,225.000000 
	C472.833344,225.000000 406.666656,225.000000 340.000000,225.000000 
M41.525902,6.947891 
	C20.697422,12.941803 5.948055,29.525166 4.022834,49.114239 
	C0.628194,83.654594 21.312210,111.367676 55.441994,117.768974 
	C60.003815,118.624588 64.843781,120.307899 69.784996,116.644638 
	C68.668633,115.602348 67.776543,114.751816 66.865471,113.922104 
	C64.020996,111.331619 61.721043,108.346291 63.163349,104.317848 
	C64.570816,100.386703 68.227341,99.791298 71.932022,98.842369 
	C79.776421,96.833092 87.978172,95.162651 95.072334,91.494576 
	C111.197815,83.156837 120.682518,69.814972 120.049599,50.977394 
	C119.420158,32.243534 110.836922,18.139746 93.570778,10.216846 
	C77.025948,2.624936 59.782436,2.293485 41.525902,6.947891 
M324.423828,130.741135 
	C326.422150,130.741058 328.421356,130.778915 330.418640,130.733444 
	C335.463959,130.618546 337.900177,128.657196 337.811829,124.694702 
	C337.709167,120.088928 334.914948,118.697060 330.794861,119.097580 
	C327.813690,119.387398 326.521423,118.208115 326.671234,115.115143 
	C326.848236,111.460083 326.930969,107.773178 326.652740,104.130775 
	C326.354370,100.225174 327.672028,98.513977 331.717957,98.986824 
	C335.694733,99.451599 337.756165,97.286903 337.766602,93.497314 
	C337.777283,89.618599 335.831665,87.251076 331.632965,87.255310 
	C317.311462,87.269760 302.989899,87.286652 288.668549,87.244194 
	C284.498566,87.231834 282.519043,89.355095 282.477509,93.340454 
	C282.438141,97.116165 284.102936,99.408897 288.240479,99.008247 
	C291.322021,98.709839 292.358032,100.076385 292.203583,103.091667 
	C291.999390,107.077896 292.026794,111.087822 292.194977,115.077431 
	C292.321777,118.084480 291.237091,119.403885 288.156555,119.112274 
	C284.982635,118.811821 283.119629,120.407608 282.544769,123.501793 
	C281.710205,127.994110 283.968353,130.669617 288.973480,130.710648 
	C300.463226,130.804901 311.954254,130.740891 324.423828,130.741135 
M331.907471,172.795563 
	C330.079071,168.036865 326.131531,165.614380 321.522827,165.359604 
	C312.405823,164.855621 303.246521,165.042847 294.106262,165.122498 
	C292.934326,165.132690 291.177460,165.918915 290.730713,166.846252 
	C289.852844,168.668381 288.729736,171.405899 289.495636,172.733047 
	C290.526276,174.518951 293.167084,176.204147 295.257111,176.394852 
	C301.535339,176.967743 307.881653,176.798462 314.201508,176.910645 
	C317.861420,176.975601 321.139618,177.867752 320.992493,182.308792 
	C320.851501,186.565125 317.443817,186.898605 314.118256,187.041580 
	C308.815704,187.269547 303.446686,187.124664 298.231781,187.941711 
	C290.616638,189.134811 287.364960,193.228973 286.546814,201.242859 
	C285.722412,209.317520 288.355011,214.740097 295.384491,217.281937 
	C306.125763,221.165909 317.275055,220.717545 328.329010,218.762741 
	C329.749695,218.511520 331.790161,216.128204 331.775665,214.751144 
	C331.755188,212.803513 330.488068,210.432510 328.995056,209.080170 
	C327.876465,208.066971 325.565918,208.171875 323.778046,208.130905 
	C317.289398,207.982254 310.763153,208.335083 304.327332,207.711517 
	C302.381866,207.523010 299.521271,205.028748 299.126709,203.158768 
	C298.420074,199.809830 301.415009,198.935730 304.385925,198.916245 
	C308.378937,198.890015 312.372284,198.828003 316.364105,198.726273 
	C328.115417,198.426788 333.078796,193.558273 333.229248,181.884521 
	C333.265106,179.101196 332.551086,176.308228 331.907471,172.795563 
M385.684082,183.892349 
	C390.655029,183.591202 395.657379,183.537552 400.587250,182.912384 
	C404.698090,182.391083 407.030518,178.682404 405.121765,175.403397 
	C404.135773,173.709564 401.345551,172.367599 399.240356,172.154938 
	C392.978577,171.522400 386.638428,171.706390 380.356476,171.217117 
	C376.644745,170.928040 374.791779,168.459335 375.063629,164.691055 
	C375.318451,161.158508 377.669556,159.992615 380.853333,159.811630 
	C384.497467,159.604507 388.138611,159.337463 391.778259,159.059860 
	C400.518127,158.393204 404.816162,154.737000 406.109222,146.070007 
	C406.663300,142.356125 406.594879,138.411591 406.015594,134.695602 
	C404.879730,127.409264 400.990906,123.666382 393.702545,123.226852 
	C385.918427,122.757431 378.087952,122.961784 370.279266,123.034187 
	C366.419464,123.069969 364.423523,125.492622 364.576874,129.147018 
	C364.730621,132.811157 367.221954,134.055023 370.756866,134.058136 
	C376.234650,134.062988 381.711578,134.394455 387.189941,134.549927 
	C391.632233,134.675995 393.904358,136.794128 393.880127,141.365662 
	C393.854614,146.180374 390.754669,147.570358 386.766663,147.982864 
	C383.302673,148.341156 379.785278,148.322159 376.359528,148.884537 
	C366.207672,150.551010 362.448792,155.325165 362.457703,166.130585 
	C362.465363,175.356186 367.251404,181.182510 376.336395,182.823227 
	C379.108978,183.323959 381.942963,183.484650 385.684082,183.892349 
M223.147385,130.556229 
	C221.213318,122.422699 216.269913,117.037476 208.279099,114.609024 
	C205.874268,113.878181 203.653275,113.560364 203.114258,110.323929 
	C202.930344,109.219666 200.727554,107.732079 199.450394,107.735176 
	C198.214096,107.738182 196.238846,109.223228 195.899048,110.427277 
	C195.138077,113.123749 193.627457,113.747604 191.102982,114.370216 
	C180.821472,116.905884 174.644791,125.775414 174.758759,137.176895 
	C174.863861,147.690750 180.615738,155.009735 191.175537,157.447861 
	C194.360291,158.183182 197.782913,158.144257 201.086899,158.063751 
	C216.925461,157.677689 225.778625,146.992386 223.147385,130.556229 
M433.197601,109.963181 
	C429.577393,108.491020 425.998016,107.946442 423.335297,111.576485 
	C420.859314,114.951973 422.244232,117.758667 425.059113,120.281013 
	C425.691254,120.847450 426.093597,121.993675 426.104340,122.879028 
	C426.188202,129.807449 426.150787,136.737366 426.150787,143.983597 
	C423.038544,143.983597 420.404053,144.056519 417.775024,143.967178 
	C413.406494,143.818695 411.154205,146.207153 410.989166,150.223312 
	C410.815369,154.452133 413.457428,156.547791 417.563446,156.712189 
	C420.324524,156.822754 423.093628,156.733246 426.153961,156.733246 
	C426.153961,168.076324 426.144043,178.862549 426.158112,189.648727 
	C426.165192,195.064972 427.803558,196.918747 432.561798,196.987656 
	C437.146729,197.054047 438.835297,195.088837 438.839081,189.512817 
	C438.854584,166.718124 438.789398,143.923157 438.893982,121.128937 
	C438.914764,116.600769 437.401367,113.056030 433.197601,109.963181 
M111.764755,175.039627 
	C102.806427,180.890060 98.986908,190.102570 101.236313,200.433762 
	C103.074226,208.875015 109.398895,214.218704 119.374420,215.758621 
	C131.485764,217.628220 142.458984,211.348892 144.938705,200.973312 
	C147.080383,192.012222 145.211655,183.909210 138.152756,177.824173 
	C130.467499,171.199173 121.606331,170.942245 111.764755,175.039627 
M157.988052,149.910294 
	C146.069504,149.910294 134.150955,149.910294 121.974380,149.910294 
	C121.974380,142.961395 121.992783,136.808884 121.968834,130.656525 
	C121.947929,125.284584 120.306351,123.575424 115.364388,123.645714 
	C110.736961,123.711540 108.922623,126.053970 109.083595,130.635498 
	C109.303619,136.897827 109.138535,143.173676 109.138535,149.886307 
	C102.071426,149.886307 95.609909,149.968536 89.151779,149.855927 
	C85.181892,149.786713 82.541046,151.204956 82.598572,155.460373 
	C82.653625,159.533615 84.958511,161.187256 89.095772,161.167801 
	C111.749619,161.061249 134.404419,161.070480 157.058365,161.164963 
	C160.630157,161.179840 162.975922,159.926132 163.433746,156.372787 
	C163.862839,153.042221 162.695099,150.452179 157.988052,149.910294 
M463.620789,152.204071 
	C462.630524,155.652161 463.696503,158.811523 467.158813,159.116684 
	C469.819733,159.351212 473.546661,158.165710 475.283264,156.242569 
	C480.842834,150.085602 485.797821,143.367218 490.781677,136.712387 
	C493.324158,133.317413 495.305084,133.575638 497.721313,136.748291 
	C502.559082,143.100647 507.485443,149.387268 512.466919,155.627838 
	C515.515564,159.447067 519.887390,160.440430 522.876953,158.020432 
	C526.696533,154.928635 525.348511,151.269211 523.095337,148.258774 
	C515.821289,138.540009 508.373657,128.944443 500.753906,119.494148 
	C497.283875,115.190498 492.037811,114.816452 488.661285,119.022301 
	C480.137787,129.639313 472.097687,140.644409 463.620789,152.204071 
M249.909790,160.804642 
	C249.933487,143.336777 249.989456,125.868858 249.962921,108.401070 
	C249.953964,102.508774 246.354553,97.563889 241.361526,97.340492 
	C239.216385,97.244514 236.286667,98.423813 235.016876,100.044777 
	C233.954849,101.400536 233.866104,105.203316 234.954971,106.251587 
	C238.593719,109.754623 237.827988,113.638618 237.484375,117.536194 
	C233.758987,120.021912 226.552032,117.000664 226.914246,124.944267 
	C227.266785,132.675858 233.973587,128.752090 237.512665,130.638550 
	C237.512665,133.708282 237.512665,136.646225 237.512665,139.120178 
	C233.852295,141.840363 226.992188,138.663452 226.912323,146.213760 
	C226.827286,154.253586 233.728836,150.868713 237.221680,152.347015 
	C239.060120,156.626709 235.012100,162.629288 241.664734,164.634827 
	C244.940765,165.622406 247.965622,165.138687 249.909790,160.804642 
M105.000870,94.400993 
	C100.710426,94.368233 97.059151,95.516815 97.264763,100.634499 
	C97.480118,105.994797 101.657547,106.038033 105.668541,106.022232 
	C114.162956,105.988777 122.660332,106.139046 131.150940,105.956192 
	C135.082535,105.871513 136.533234,107.499863 136.474854,111.280167 
	C136.374619,117.773170 136.435471,124.270493 136.540588,130.764191 
	C136.608322,134.946686 138.554871,137.193604 143.065063,137.056396 
	C147.632919,136.917404 149.133514,134.462845 149.104858,130.308624 
	C149.047424,121.981041 149.129639,113.652519 149.077957,105.324852 
	C149.025879,96.933014 146.470367,94.441437 137.885712,94.408424 
	C127.226036,94.367432 116.566093,94.399094 105.000870,94.400993 
M456.731110,179.897324 
	C453.201599,181.254684 452.269470,184.245575 453.657654,187.138306 
	C454.502380,188.898544 457.221710,190.830902 459.118835,190.851410 
	C482.388214,191.102905 505.661346,190.984528 528.933289,191.046646 
	C532.531006,191.056244 534.147461,189.025253 534.509216,185.961899 
	C534.873596,182.876526 533.726624,180.317551 530.239624,179.720184 
	C528.455383,179.414505 526.620544,179.284378 524.808167,179.280884 
	C508.185333,179.248856 491.562225,179.225464 474.939484,179.281906 
	C469.138184,179.301605 463.337708,179.550797 456.731110,179.897324 
M317.500000,141.015030 
	C303.837799,141.015320 290.175568,140.996002 276.513428,141.026016 
	C271.385345,141.037277 268.954865,142.992752 269.199921,146.999847 
	C269.487244,151.697800 272.488434,152.952652 276.748566,152.938019 
	C298.741089,152.862473 320.734039,152.913422 342.726837,152.895599 
	C348.061798,152.891281 350.590057,150.868225 350.581268,146.751221 
	C350.572845,142.797348 348.285950,141.039093 342.991943,141.022064 
	C334.828033,140.995804 326.664001,141.015076 317.500000,141.015030 
M216.861877,198.874878 
	C212.172852,199.392639 210.663208,197.014511 210.826950,192.650772 
	C211.014145,187.662628 210.832886,182.661682 210.878799,177.666901 
	C210.915131,173.713821 209.258087,171.232437 205.116348,171.063354 
	C200.937057,170.892746 198.356232,172.900360 198.295517,177.202469 
	C198.180389,185.359070 198.070511,193.526489 198.366791,201.674561 
	C198.579468,207.523056 201.492065,210.067459 207.280212,210.101837 
	C218.768768,210.170090 230.258606,210.055527 241.746658,210.158142 
	C245.759750,210.193985 248.215134,208.730011 248.305573,204.511993 
	C248.400299,200.094406 245.595993,198.876953 241.767548,198.883911 
	C233.775299,198.898422 225.782990,198.879913 216.861877,198.874878 
z"/>
<path fill="#39FE15" opacity="1.000000" stroke="none" 
	d="
M41.921967,6.854114 
	C59.782436,2.293485 77.025948,2.624936 93.570778,10.216846 
	C110.836922,18.139746 119.420158,32.243534 120.049599,50.977394 
	C120.682518,69.814972 111.197815,83.156837 95.072334,91.494576 
	C87.978172,95.162651 79.776421,96.833092 71.932022,98.842369 
	C68.227341,99.791298 64.570816,100.386703 63.163349,104.317848 
	C61.721043,108.346291 64.020996,111.331619 66.865471,113.922104 
	C67.776543,114.751816 68.668633,115.602348 69.784996,116.644638 
	C64.843781,120.307899 60.003815,118.624588 55.441994,117.768974 
	C21.312210,111.367676 0.628194,83.654594 4.022834,49.114239 
	C5.948055,29.525166 20.697422,12.941803 41.921967,6.854114 
M98.270691,62.963562 
	C98.487930,57.100163 97.549721,51.599758 93.397484,46.449673 
	C78.036888,67.028854 58.107738,72.866287 33.076061,66.084183 
	C34.354660,68.445663 34.973797,69.895439 35.852539,71.165611 
	C46.801388,86.991631 63.389725,90.556175 82.044373,81.169861 
	C89.602844,77.366722 96.946388,73.401428 98.270691,62.963562 
M34.011150,38.683540 
	C28.687874,39.130108 26.093237,42.719765 28.863579,46.136745 
	C29.886087,47.397919 32.245979,48.319187 33.853893,48.137653 
	C35.268230,47.977982 37.655754,45.932014 37.546131,44.949829 
	C37.312183,42.853611 35.738617,40.906906 34.011150,38.683540 
M74.428146,22.982889 
	C74.129524,24.661766 73.027466,27.264252 73.688828,27.839554 
	C75.404068,29.331610 78.066597,30.968660 80.036743,30.643513 
	C82.967194,30.159883 84.062584,27.076721 82.734673,24.333075 
	C81.091606,20.938263 78.255302,20.191278 74.428146,22.982889 
z"/>
<path fill="#F5F5F5" opacity="1.000000" stroke="none" 
	d="
M323.934296,130.741119 
	C311.954254,130.740891 300.463226,130.804901 288.973480,130.710648 
	C283.968353,130.669617 281.710205,127.994110 282.544769,123.501793 
	C283.119629,120.407608 284.982635,118.811821 288.156555,119.112274 
	C291.237091,119.403885 292.321777,118.084480 292.194977,115.077431 
	C292.026794,111.087822 291.999390,107.077896 292.203583,103.091667 
	C292.358032,100.076385 291.322021,98.709839 288.240479,99.008247 
	C284.102936,99.408897 282.438141,97.116165 282.477509,93.340454 
	C282.519043,89.355095 284.498566,87.231834 288.668549,87.244194 
	C302.989899,87.286652 317.311462,87.269760 331.632965,87.255310 
	C335.831665,87.251076 337.777283,89.618599 337.766602,93.497314 
	C337.756165,97.286903 335.694733,99.451599 331.717957,98.986824 
	C327.672028,98.513977 326.354370,100.225174 326.652740,104.130775 
	C326.930969,107.773178 326.848236,111.460083 326.671234,115.115143 
	C326.521423,118.208115 327.813690,119.387398 330.794861,119.097580 
	C334.914948,118.697060 337.709167,120.088928 337.811829,124.694702 
	C337.900177,128.657196 335.463959,130.618546 330.418640,130.733444 
	C328.421356,130.778915 326.422150,130.741058 323.934296,130.741119 
M305.101990,112.326218 
	C305.102051,112.989578 305.151245,113.657211 305.093842,114.315567 
	C304.818848,117.470070 305.638550,119.261215 309.411987,119.223030 
	C312.973022,119.186996 314.113495,117.806587 313.938141,114.454918 
	C313.756439,110.981812 313.744232,107.483078 313.941223,104.011635 
	C314.137604,100.550140 313.210632,98.851570 309.281067,98.879959 
	C305.399292,98.908005 304.928558,100.876007 305.077362,103.919548 
	C305.198700,106.401207 305.102020,108.893517 305.101990,112.326218 
z"/>
<path fill="#F8F8F8" opacity="1.000000" stroke="none" 
	d="
M332.044739,173.157623 
	C332.551086,176.308228 333.265106,179.101196 333.229248,181.884521 
	C333.078796,193.558273 328.115417,198.426788 316.364105,198.726273 
	C312.372284,198.828003 308.378937,198.890015 304.385925,198.916245 
	C301.415009,198.935730 298.420074,199.809830 299.126709,203.158768 
	C299.521271,205.028748 302.381866,207.523010 304.327332,207.711517 
	C310.763153,208.335083 317.289398,207.982254 323.778046,208.130905 
	C325.565918,208.171875 327.876465,208.066971 328.995056,209.080170 
	C330.488068,210.432510 331.755188,212.803513 331.775665,214.751144 
	C331.790161,216.128204 329.749695,218.511520 328.329010,218.762741 
	C317.275055,220.717545 306.125763,221.165909 295.384491,217.281937 
	C288.355011,214.740097 285.722412,209.317520 286.546814,201.242859 
	C287.364960,193.228973 290.616638,189.134811 298.231781,187.941711 
	C303.446686,187.124664 308.815704,187.269547 314.118256,187.041580 
	C317.443817,186.898605 320.851501,186.565125 320.992493,182.308792 
	C321.139618,177.867752 317.861420,176.975601 314.201508,176.910645 
	C307.881653,176.798462 301.535339,176.967743 295.257111,176.394852 
	C293.167084,176.204147 290.526276,174.518951 289.495636,172.733047 
	C288.729736,171.405899 289.852844,168.668381 290.730713,166.846252 
	C291.177460,165.918915 292.934326,165.132690 294.106262,165.122498 
	C303.246521,165.042847 312.405823,164.855621 321.522827,165.359604 
	C326.131531,165.614380 330.079071,168.036865 332.044739,173.157623 
z"/>
<path fill="#F8F8F8" opacity="1.000000" stroke="none" 
	d="
M385.216461,183.846710 
	C381.942963,183.484650 379.108978,183.323959 376.336395,182.823227 
	C367.251404,181.182510 362.465363,175.356186 362.457703,166.130585 
	C362.448792,155.325165 366.207672,150.551010 376.359528,148.884537 
	C379.785278,148.322159 383.302673,148.341156 386.766663,147.982864 
	C390.754669,147.570358 393.854614,146.180374 393.880127,141.365662 
	C393.904358,136.794128 391.632233,134.675995 387.189941,134.549927 
	C381.711578,134.394455 376.234650,134.062988 370.756866,134.058136 
	C367.221954,134.055023 364.730621,132.811157 364.576874,129.147018 
	C364.423523,125.492622 366.419464,123.069969 370.279266,123.034187 
	C378.087952,122.961784 385.918427,122.757431 393.702545,123.226852 
	C400.990906,123.666382 404.879730,127.409264 406.015594,134.695602 
	C406.594879,138.411591 406.663300,142.356125 406.109222,146.070007 
	C404.816162,154.737000 400.518127,158.393204 391.778259,159.059860 
	C388.138611,159.337463 384.497467,159.604507 380.853333,159.811630 
	C377.669556,159.992615 375.318451,161.158508 375.063629,164.691055 
	C374.791779,168.459335 376.644745,170.928040 380.356476,171.217117 
	C386.638428,171.706390 392.978577,171.522400 399.240356,172.154938 
	C401.345551,172.367599 404.135773,173.709564 405.121765,175.403397 
	C407.030518,178.682404 404.698090,182.391083 400.587250,182.912384 
	C395.657379,183.537552 390.655029,183.591202 385.216461,183.846710 
z"/>
<path fill="#38F913" opacity="1.000000" stroke="none" 
	d="
M223.244629,130.962433 
	C225.778625,146.992386 216.925461,157.677689 201.086899,158.063751 
	C197.782913,158.144257 194.360291,158.183182 191.175537,157.447861 
	C180.615738,155.009735 174.863861,147.690750 174.758759,137.176895 
	C174.644791,125.775414 180.821472,116.905884 191.102982,114.370216 
	C193.627457,113.747604 195.138077,113.123749 195.899048,110.427277 
	C196.238846,109.223228 198.214096,107.738182 199.450394,107.735176 
	C200.727554,107.732079 202.930344,109.219666 203.114258,110.323929 
	C203.653275,113.560364 205.874268,113.878181 208.279099,114.609024 
	C216.269913,117.037476 221.213318,122.422699 223.244629,130.962433 
M201.106888,124.136497 
	C198.663757,124.477173 195.613022,124.028931 193.914871,125.336853 
	C191.119492,127.489876 188.301712,130.457504 187.147079,133.675140 
	C185.820786,137.371063 186.618301,141.621048 190.236816,144.474319 
	C194.158630,147.566742 201.783890,148.071655 206.270630,145.556305 
	C210.554337,143.154800 212.050354,139.265533 211.700348,134.651825 
	C211.245468,128.655716 207.382339,125.644974 201.106888,124.136497 
z"/>
<path fill="#F5F5F5" opacity="1.000000" stroke="none" 
	d="
M433.549988,110.124420 
	C437.401367,113.056030 438.914764,116.600769 438.893982,121.128937 
	C438.789398,143.923157 438.854584,166.718124 438.839081,189.512817 
	C438.835297,195.088837 437.146729,197.054047 432.561798,196.987656 
	C427.803558,196.918747 426.165192,195.064972 426.158112,189.648727 
	C426.144043,178.862549 426.153961,168.076324 426.153961,156.733246 
	C423.093628,156.733246 420.324524,156.822754 417.563446,156.712189 
	C413.457428,156.547791 410.815369,154.452133 410.989166,150.223312 
	C411.154205,146.207153 413.406494,143.818695 417.775024,143.967178 
	C420.404053,144.056519 423.038544,143.983597 426.150787,143.983597 
	C426.150787,136.737366 426.188202,129.807449 426.104340,122.879028 
	C426.093597,121.993675 425.691254,120.847450 425.059113,120.281013 
	C422.244232,117.758667 420.859314,114.951973 423.335297,111.576485 
	C425.998016,107.946442 429.577393,108.491020 433.549988,110.124420 
z"/>
<path fill="#37F913" opacity="1.000000" stroke="none" 
	d="
M112.111694,174.886810 
	C121.606331,170.942245 130.467499,171.199173 138.152756,177.824173 
	C145.211655,183.909210 147.080383,192.012222 144.938705,200.973312 
	C142.458984,211.348892 131.485764,217.628220 119.374420,215.758621 
	C109.398895,214.218704 103.074226,208.875015 101.236313,200.433762 
	C98.986908,190.102570 102.806427,180.890060 112.111694,174.886810 
M125.779503,204.513290 
	C126.256630,204.367264 126.754150,204.267609 127.207764,204.068115 
	C132.620209,201.687714 134.976440,196.689636 133.391754,190.983887 
	C131.975388,185.884186 127.078522,182.607895 122.045906,183.392883 
	C115.840950,184.360718 112.809174,187.981979 112.859634,194.365295 
	C112.915825,201.474350 116.826286,204.810944 125.779503,204.513290 
z"/>
<path fill="#38FC14" opacity="1.000000" stroke="none" 
	d="
M158.426666,149.935852 
	C162.695099,150.452179 163.862839,153.042221 163.433746,156.372787 
	C162.975922,159.926132 160.630157,161.179840 157.058365,161.164963 
	C134.404419,161.070480 111.749619,161.061249 89.095772,161.167801 
	C84.958511,161.187256 82.653625,159.533615 82.598572,155.460373 
	C82.541046,151.204956 85.181892,149.786713 89.151779,149.855927 
	C95.609909,149.968536 102.071426,149.886307 109.138535,149.886307 
	C109.138535,143.173676 109.303619,136.897827 109.083595,130.635498 
	C108.922623,126.053970 110.736961,123.711540 115.364388,123.645714 
	C120.306351,123.575424 121.947929,125.284584 121.968834,130.656525 
	C121.992783,136.808884 121.974380,142.961395 121.974380,149.910294 
	C134.150955,149.910294 146.069504,149.910294 158.426666,149.935852 
z"/>
<path fill="#F7F7F7" opacity="1.000000" stroke="none" 
	d="
M463.742340,151.849045 
	C472.097687,140.644409 480.137787,129.639313 488.661285,119.022301 
	C492.037811,114.816452 497.283875,115.190498 500.753906,119.494148 
	C508.373657,128.944443 515.821289,138.540009 523.095337,148.258774 
	C525.348511,151.269211 526.696533,154.928635 522.876953,158.020432 
	C519.887390,160.440430 515.515564,159.447067 512.466919,155.627838 
	C507.485443,149.387268 502.559082,143.100647 497.721313,136.748291 
	C495.305084,133.575638 493.324158,133.317413 490.781677,136.712387 
	C485.797821,143.367218 480.842834,150.085602 475.283264,156.242569 
	C473.546661,158.165710 469.819733,159.351212 467.158813,159.116684 
	C463.696503,158.811523 462.630524,155.652161 463.742340,151.849045 
z"/>
<path fill="#38FA14" opacity="1.000000" stroke="none" 
	d="
M249.820541,161.228775 
	C247.965622,165.138687 244.940765,165.622406 241.664734,164.634827 
	C235.012100,162.629288 239.060120,156.626709 237.221680,152.347015 
	C233.728836,150.868713 226.827286,154.253586 226.912323,146.213760 
	C226.992188,138.663452 233.852295,141.840363 237.512665,139.120178 
	C237.512665,136.646225 237.512665,133.708282 237.512665,130.638550 
	C233.973587,128.752090 227.266785,132.675858 226.914246,124.944267 
	C226.552032,117.000664 233.758987,120.021912 237.484375,117.536194 
	C237.827988,113.638618 238.593719,109.754623 234.954971,106.251587 
	C233.866104,105.203316 233.954849,101.400536 235.016876,100.044777 
	C236.286667,98.423813 239.216385,97.244514 241.361526,97.340492 
	C246.354553,97.563889 249.953964,102.508774 249.962921,108.401070 
	C249.989456,125.868858 249.933487,143.336777 249.820541,161.228775 
z"/>
<path fill="#37F813" opacity="1.000000" stroke="none" 
	d="
M105.453568,94.400185 
	C116.566093,94.399094 127.226036,94.367432 137.885712,94.408424 
	C146.470367,94.441437 149.025879,96.933014 149.077957,105.324852 
	C149.129639,113.652519 149.047424,121.981041 149.104858,130.308624 
	C149.133514,134.462845 147.632919,136.917404 143.065063,137.056396 
	C138.554871,137.193604 136.608322,134.946686 136.540588,130.764191 
	C136.435471,124.270493 136.374619,117.773170 136.474854,111.280167 
	C136.533234,107.499863 135.082535,105.871513 131.150940,105.956192 
	C122.660332,106.139046 114.162956,105.988777 105.668541,106.022232 
	C101.657547,106.038033 97.480118,105.994797 97.264763,100.634499 
	C97.059151,95.516815 100.710426,94.368233 105.453568,94.400185 
z"/>
<path fill="#F6F6F6" opacity="1.000000" stroke="none" 
	d="
M457.133972,179.796234 
	C463.337708,179.550797 469.138184,179.301605 474.939484,179.281906 
	C491.562225,179.225464 508.185333,179.248856 524.808167,179.280884 
	C526.620544,179.284378 528.455383,179.414505 530.239624,179.720184 
	C533.726624,180.317551 534.873596,182.876526 534.509216,185.961899 
	C534.147461,189.025253 532.531006,191.056244 528.933289,191.046646 
	C505.661346,190.984528 482.388214,191.102905 459.118835,190.851410 
	C457.221710,190.830902 454.502380,188.898544 453.657654,187.138306 
	C452.269470,184.245575 453.201599,181.254684 457.133972,179.796234 
z"/>
<path fill="#F9F9F9" opacity="1.000000" stroke="none" 
	d="
M318.000000,141.015030 
	C326.664001,141.015076 334.828033,140.995804 342.991943,141.022064 
	C348.285950,141.039093 350.572845,142.797348 350.581268,146.751221 
	C350.590057,150.868225 348.061798,152.891281 342.726837,152.895599 
	C320.734039,152.913422 298.741089,152.862473 276.748566,152.938019 
	C272.488434,152.952652 269.487244,151.697800 269.199921,146.999847 
	C268.954865,142.992752 271.385345,141.037277 276.513428,141.026016 
	C290.175568,140.996002 303.837799,141.015320 318.000000,141.015030 
z"/>
<path fill="#38F913" opacity="1.000000" stroke="none" 
	d="
M217.326294,198.874924 
	C225.782990,198.879913 233.775299,198.898422 241.767548,198.883911 
	C245.595993,198.876953 248.400299,200.094406 248.305573,204.511993 
	C248.215134,208.730011 245.759750,210.193985 241.746658,210.158142 
	C230.258606,210.055527 218.768768,210.170090 207.280212,210.101837 
	C201.492065,210.067459 198.579468,207.523056 198.366791,201.674561 
	C198.070511,193.526489 198.180389,185.359070 198.295517,177.202469 
	C198.356232,172.900360 200.937057,170.892746 205.116348,171.063354 
	C209.258087,171.232437 210.915131,173.713821 210.878799,177.666901 
	C210.832886,182.661682 211.014145,187.662628 210.826950,192.650772 
	C210.663208,197.014511 212.172852,199.392639 217.326294,198.874924 
z"/>
<path fill="#FCFFFC" opacity="1.000000" stroke="none" 
	d="
M98.222992,63.358276 
	C96.946388,73.401428 89.602844,77.366722 82.044373,81.169861 
	C63.389725,90.556175 46.801388,86.991631 35.852539,71.165611 
	C34.973797,69.895439 34.354660,68.445663 33.076061,66.084183 
	C58.107738,72.866287 78.036888,67.028854 93.397484,46.449673 
	C97.549721,51.599758 98.487930,57.100163 98.222992,63.358276 
z"/>
<path fill="#F4FFF2" opacity="1.000000" stroke="none" 
	d="
M34.362526,38.791245 
	C35.738617,40.906906 37.312183,42.853611 37.546131,44.949829 
	C37.655754,45.932014 35.268230,47.977982 33.853893,48.137653 
	C32.245979,48.319187 29.886087,47.397919 28.863579,46.136745 
	C26.093237,42.719765 28.687874,39.130108 34.362526,38.791245 
z"/>
<path fill="#F5FFF3" opacity="1.000000" stroke="none" 
	d="
M74.694412,22.712635 
	C78.255302,20.191278 81.091606,20.938263 82.734673,24.333075 
	C84.062584,27.076721 82.967194,30.159883 80.036743,30.643513 
	C78.066597,30.968660 75.404068,29.331610 73.688828,27.839554 
	C73.027466,27.264252 74.129524,24.661766 74.694412,22.712635 
z"/>
<path fill="#0F0F0F" opacity="1.000000" stroke="none" 
	d="
M305.101990,111.853661 
	C305.102020,108.893517 305.198700,106.401207 305.077362,103.919548 
	C304.928558,100.876007 305.399292,98.908005 309.281067,98.879959 
	C313.210632,98.851570 314.137604,100.550140 313.941223,104.011635 
	C313.744232,107.483078 313.756439,110.981812 313.938141,114.454918 
	C314.113495,117.806587 312.973022,119.186996 309.411987,119.223030 
	C305.638550,119.261215 304.818848,117.470070 305.093842,114.315567 
	C305.151245,113.657211 305.102051,112.989578 305.101990,111.853661 
z"/>
<path fill="#010500" opacity="1.000000" stroke="none" 
	d="
M201.507599,124.199425 
	C207.382339,125.644974 211.245468,128.655716 211.700348,134.651825 
	C212.050354,139.265533 210.554337,143.154800 206.270630,145.556305 
	C201.783890,148.071655 194.158630,147.566742 190.236816,144.474319 
	C186.618301,141.621048 185.820786,137.371063 187.147079,133.675140 
	C188.301712,130.457504 191.119492,127.489876 193.914871,125.336853 
	C195.613022,124.028931 198.663757,124.477173 201.507599,124.199425 
z"/>
<path fill="#010700" opacity="1.000000" stroke="none" 
	d="
M125.404007,204.630829 
	C116.826286,204.810944 112.915825,201.474350 112.859634,194.365295 
	C112.809174,187.981979 115.840950,184.360718 122.045906,183.392883 
	C127.078522,182.607895 131.975388,185.884186 133.391754,190.983887 
	C134.976440,196.689636 132.620209,201.687714 127.207764,204.068115 
	C126.754150,204.267609 126.256630,204.367264 125.404007,204.630829 
z"/>
</svg>