<?xml version="1.0" standalone="no"?>
<!DOCTYPE svg PUBLIC "-//W3C//DTD SVG 20010904//EN"
 "http://www.w3.org/TR/2001/REC-SVG-20010904/DTD/svg10.dtd">
<svg version="1.0" xmlns="http://www.w3.org/2000/svg"
 width="268.000000pt" height="497.000000pt" viewBox="0 0 268.000000 497.000000"
 preserveAspectRatio="xMidYMid meet">

<g transform="translate(0.000000,497.000000) scale(0.100000,-0.100000)"
fill="#000000" stroke="none">
<path d="M0 2485 l0 -2485 1340 0 1340 0 0 2485 0 2485 -1340 0 -1340 0 0
-2485z m1708 2159 c41 -26 93 -54 116 -63 l43 -16 -27 -95 c-23 -81 -30 -94
-46 -92 -10 2 -79 21 -153 43 -74 21 -135 39 -137 39 -1 0 9 42 23 93 25 93
54 137 90 137 9 0 50 -21 91 -46z m-215 -25 c12 -7 23 -13 25 -14 7 -6 -30
-115 -39 -115 -15 0 -53 21 -61 34 -15 22 -8 57 17 81 28 29 29 29 58 14z
m144 -275 c-7 -7 -37 7 -37 17 0 6 9 5 21 -1 11 -7 19 -14 16 -16z m-128 -27
c10 -13 85 -38 154 -52 15 -3 27 -9 27 -13 0 -10 -99 -107 -103 -101 -49 59
-107 146 -107 160 0 22 13 25 29 6z m-89 -127 c19 -141 12 -134 99 -94 l75 34
36 -35 c20 -19 41 -35 47 -35 6 0 31 35 54 78 23 42 43 79 45 80 6 8 111 -20
181 -48 41 -17 107 -51 146 -76 132 -86 299 -268 313 -341 14 -76 -2 -99 -209
-287 -185 -169 -192 -174 -195 -146 -4 33 -52 80 -82 80 -14 0 11 39 101 155
66 85 121 155 122 155 1 0 27 -7 57 -15 65 -17 73 -18 65 -5 -3 5 -32 14 -65
21 -33 6 -64 17 -70 24 -6 7 -15 62 -22 124 -6 61 -15 111 -19 111 -5 0 -6
-19 -4 -42 26 -230 26 -230 11 -252 -44 -62 -42 -61 -94 -48 -70 19 -111 58
-158 151 -51 100 -63 114 -131 147 -124 61 -250 0 -360 -174 -20 -31 -37 -58
-38 -60 -1 -1 -14 3 -29 9 l-26 12 5 136 c3 83 1 124 -4 106 -5 -16 -9 -76
-10 -132 -1 -64 -5 -103 -11 -103 -6 0 -24 -29 -40 -65 -50 -111 -173 -250
-248 -282 -55 -23 -129 -20 -187 7 -86 41 -193 159 -273 302 l-32 56 76 41 77
42 56 -53 c31 -30 83 -76 116 -103 33 -27 86 -74 118 -104 31 -31 57 -51 57
-45 0 5 -24 34 -54 63 l-54 54 33 46 c18 25 77 131 131 234 104 198 162 282
231 330 42 30 133 60 144 48 4 -3 12 -49 19 -101z m95 37 c30 -41 55 -77 55
-80 0 -4 -26 -20 -59 -36 l-58 -30 -12 77 c-7 42 -15 92 -18 110 -4 28 -2 32
16 32 14 0 38 -23 76 -73z m242 -1 c2 -1 -16 -37 -39 -79 l-43 -77 -34 35 -35
34 45 50 c38 43 48 49 73 45 16 -2 31 -6 33 -8z m-1616 -19 c-1 -12 -15 -9
-19 4 -3 6 1 10 8 8 6 -3 11 -8 11 -12z m59 -22 c0 -8 -4 -15 -9 -15 -13 0
-22 16 -14 24 11 11 23 6 23 -9z m60 -31 c0 -17 -22 -14 -28 4 -2 7 3 12 12
12 9 0 16 -7 16 -16z m-152 -26 c-6 -18 -28 -21 -28 -4 0 9 7 16 16 16 9 0 14
-5 12 -12z m52 -28 c0 -5 -4 -10 -10 -10 -5 0 -10 5 -10 10 0 6 5 10 10 10 6
0 10 -4 10 -10z m60 -25 c0 -8 -4 -15 -9 -15 -13 0 -22 16 -14 24 11 11 23 6
23 -9z m180 10 c0 -12 -35 -75 -41 -75 -4 0 0 18 8 40 9 22 20 40 25 40 4 0 8
-2 8 -5z m101 -64 c-8 -14 -8 -22 0 -26 6 -5 8 -22 4 -46 -4 -21 -5 -39 -2
-39 3 0 14 16 26 36 24 41 45 36 38 -9 -3 -25 -2 -28 8 -14 22 30 30 18 29
-40 l-1 -57 -52 -29 c-29 -17 -56 -26 -60 -21 -4 5 -18 37 -30 70 l-23 62 23
43 c13 24 22 48 21 52 -3 11 19 50 25 44 2 -3 0 -14 -6 -26z m114 -50 c-3 -12
-10 -21 -15 -21 -5 0 -4 11 2 25 13 29 23 26 13 -4z m113 -78 c-24 -55 -26
-58 -33 -51 -7 7 36 98 46 98 5 0 -1 -21 -13 -47z m1000 18 c50 -26 69 -48
122 -149 40 -77 52 -91 100 -119 30 -18 64 -33 77 -33 13 0 23 -3 23 -6 0 -3
-19 -29 -42 -59 -38 -49 -43 -52 -69 -43 -15 5 -47 8 -70 5 l-44 -4 50 -1 c57
-3 80 -14 72 -34 -4 -11 -18 -14 -60 -10 -46 4 -59 1 -77 -16 -23 -22 -50 -19
-50 4 0 14 11 18 40 15 12 -2 13 0 1 7 -11 8 -10 12 5 22 18 11 18 11 -1 5
-32 -11 -34 -11 -145 42 -58 28 -121 57 -140 65 l-35 15 -31 -73 -32 -73 92
-44 c50 -25 115 -55 144 -68 28 -12 52 -26 52 -31 0 -4 3 -7 8 -7 39 6 78 -36
67 -72 -6 -17 -9 -18 -22 -7 -9 7 -22 26 -29 43 -10 22 -13 25 -14 10 0 -11
24 -42 55 -71 49 -47 60 -53 97 -52 43 0 102 29 129 61 15 19 16 19 67 -7 28
-14 55 -26 59 -26 4 1 -18 14 -49 30 -41 21 -56 34 -52 45 4 8 10 15 15 15 14
0 319 -143 319 -149 0 -3 -4 -12 -9 -19 -7 -12 -14 -11 -39 2 -17 9 -35 16
-39 16 -4 -1 9 -10 29 -21 44 -23 44 -55 -1 -45 -25 6 -25 6 -5 -6 12 -7 20
-20 18 -28 -2 -8 18 30 46 85 44 90 68 152 37 99 -7 -12 -19 -19 -27 -17 -11
3 -12 2 -2 -5 13 -9 7 -42 -8 -42 -4 0 -52 21 -106 46 -55 25 -123 57 -153 70
-46 21 -52 26 -41 39 8 9 21 13 34 10 16 -5 18 -4 6 4 -10 7 -11 13 -5 19 174
156 275 250 297 274 25 29 28 30 50 16 120 -80 178 -224 157 -393 -11 -88 -32
-151 -77 -239 -48 -91 -165 -211 -247 -251 -54 -27 -70 -30 -155 -30 -82 0
-102 3 -145 26 -58 29 -105 87 -130 156 -35 99 -50 126 -87 158 -49 42 -112
60 -180 51 -154 -19 -154 -19 -210 7 -103 48 -141 105 -142 212 -1 71 37 221
53 211 10 -7 73 123 65 135 -8 13 50 103 106 162 87 94 181 117 278 68z m-883
-86 c-14 -31 -28 -55 -31 -52 -4 3 6 31 20 63 15 31 29 55 31 52 3 -3 -6 -31
-20 -63z m922 -349 c2 -2 -3 -9 -12 -16 -12 -10 -23 -10 -60 4 -50 20 -58 27
-49 50 5 13 14 12 62 -10 31 -13 57 -26 59 -28z m-83 -16 c43 -20 58 -41 37
-55 -13 -7 -101 36 -101 50 0 10 9 25 15 25 2 0 23 -9 49 -20z m29 -91 c-7
-24 -4 -24 -63 6 -46 23 -60 42 -44 58 3 3 30 -6 59 -20 41 -20 51 -30 48 -44z
m55 53 c12 -8 7 -42 -7 -42 -17 1 -31 18 -25 33 7 19 13 20 32 9z m205 -57
c34 -32 34 -61 2 -105 -13 -18 -22 -38 -18 -43 3 -6 1 -7 -4 -4 -6 4 -18 -2
-28 -13 -19 -21 -45 -27 -45 -10 0 6 7 22 16 36 9 13 14 27 11 30 -3 3 -15
-12 -27 -35 -20 -40 -50 -56 -50 -27 0 8 9 32 21 53 11 21 14 29 5 18 -45 -55
-48 -57 -59 -46 -26 26 80 171 126 171 12 0 35 -11 50 -25z m-215 -13 c3 -19
-1 -23 -15 -20 -10 2 -19 14 -21 26 -3 19 1 23 15 20 10 -2 19 -14 21 -26z
m240 -104 c-2 -6 -10 -14 -16 -16 -7 -2 -10 2 -6 12 7 18 28 22 22 4z m-653
-133 c33 -21 137 -26 230 -11 124 20 208 -45 259 -201 31 -95 121 -174 215
-189 109 -17 6 -24 -379 -24 l-420 0 0 252 0 252 33 -30 c17 -17 46 -39 62
-49z m61 -493 c-9 -27 -30 -67 -47 -90 -32 -44 -116 -92 -158 -91 -19 0 -12 5
26 18 29 10 67 30 86 44 34 26 87 115 87 147 0 18 10 33 18 26 2 -3 -3 -27
-12 -54z m579 -76 c10 -20 36 -52 58 -71 22 -19 35 -35 29 -35 -21 0 -85 65
-103 105 -11 23 -18 61 -18 90 l1 50 8 -51 c4 -28 15 -67 25 -88z m-275 -256
c-75 -42 -95 -67 -113 -138 -10 -40 -22 -72 -26 -72 -5 0 1 35 13 77 21 74 24
79 75 115 30 21 57 35 60 32 3 -3 -1 -9 -9 -14z"/>
<path d="M1670 4597 c27 -15 36 -14 25 2 -3 6 -16 11 -28 11 -21 0 -21 -1 3
-13z"/>
<path d="M1770 4566 c0 -2 11 -6 25 -8 13 -3 22 -1 19 3 -5 9 -44 13 -44 5z"/>
<path d="M1649 4548 c11 -15 41 -15 41 -1 0 3 -6 3 -14 0 -7 -3 -20 0 -27 6
-11 10 -11 9 0 -5z"/>
<path d="M1746 4514 c-4 -15 -4 -39 -1 -54 5 -23 2 -30 -15 -35 -12 -4 -19 -9
-17 -12 3 -3 14 0 23 5 14 8 19 23 19 66 1 31 0 56 -1 56 -1 0 -5 -12 -8 -26z"/>
<path d="M1778 4508 c5 -5 16 -8 23 -6 8 3 3 7 -10 11 -17 4 -21 3 -13 -5z"/>
<path d="M1440 4585 c-7 -9 -10 -18 -6 -22 3 -3 6 -1 6 5 0 22 18 12 28 -15 6
-16 11 -21 11 -13 0 8 -4 22 -9 30 -7 11 -4 17 13 22 21 6 20 6 -4 7 -15 1
-32 -6 -39 -14z"/>
<path d="M1580 4106 c0 -9 5 -16 10 -16 6 0 10 4 10 9 0 6 -4 13 -10 16 -5 3
-10 -1 -10 -9z"/>
<path d="M990 3826 c0 -2 -11 -29 -25 -60 l-25 -56 51 -26 c28 -14 52 -24 54
-22 8 9 55 109 55 116 0 5 -22 19 -49 31 -50 21 -61 24 -61 17z"/>
<path d="M1094 3723 c-14 -32 -28 -61 -30 -65 -5 -7 95 -62 101 -56 1 2 17 31
34 66 l32 63 -38 15 c-21 9 -46 20 -56 26 -15 8 -21 0 -43 -49z"/>
<path d="M1332 3602 l-30 -67 52 -27 51 -26 32 61 c18 34 32 65 33 69 0 8 -42
32 -84 48 -22 8 -26 4 -54 -58z"/>
<path d="M2160 3295 c25 -13 50 -24 55 -24 6 0 -10 11 -35 24 -25 13 -49 24
-55 24 -5 0 10 -11 35 -24z"/>
<path d="M2280 3240 c30 -16 60 -29 65 -29 6 0 -15 13 -45 29 -30 16 -59 29
-65 29 -5 0 15 -13 45 -29z"/>
<path d="M2050 3180 c30 -16 60 -29 65 -29 6 0 -15 13 -45 29 -30 16 -59 29
-65 29 -5 0 15 -13 45 -29z"/>
<path d="M2190 3170 c30 -16 60 -29 65 -29 6 0 -15 13 -45 29 -30 16 -59 29
-65 29 -5 0 15 -13 45 -29z"/>
<path d="M2180 3120 c30 -16 60 -29 65 -29 6 0 -15 13 -45 29 -30 16 -59 29
-65 29 -5 0 15 -13 45 -29z"/>
</g>
</svg>
